<svg width="40" height="40" viewBox="0 0 40 40" fill="none" xmlns="http://www.w3.org/2000/svg">
<g clip-path="url(#clip0_2668_4370)">
<path d="M40 0H21.3905V18.6095H40V0ZM27.0686 15.3874H24.7304V13.0492H27.0686V15.3874ZM27.0686 5.29102H24.7304V2.95281H27.0686V5.29102ZM37.1052 15.3874H34.767V13.0492H37.1052V15.3874ZM37.1052 5.29102H34.767V2.95281H37.1052V5.29102Z" fill="#030A16"/>
<path d="M13.1589 39.9999L26.3178 26.841L13.1589 13.6821L0 26.841L13.1589 39.9999ZM13.1582 35.8924L11.5048 34.239L13.1582 32.5856L14.8116 34.239L13.1582 35.8924ZM13.2005 18.3181L14.8539 19.9714L13.2005 21.6248L11.5472 19.9714L13.2005 18.3181Z" fill="#030A16"/>
</g>
<defs>
<clipPath id="clip0_2668_4370">
<rect width="40" height="40" fill="white"/>
</clipPath>
</defs>
</svg>
