<svg width="32" height="32" viewBox="0 0 32 32" fill="none" xmlns="http://www.w3.org/2000/svg">
<mask id="mask0_2668_4894" style="mask-type:luminance" maskUnits="userSpaceOnUse" x="1" y="1" width="30" height="30">
<path d="M16 29.3332C23.364 29.3332 29.3333 23.3638 29.3333 15.9998C29.3333 8.63584 23.364 2.6665 16 2.6665C8.63596 2.6665 2.66663 8.63584 2.66663 15.9998C2.66663 23.3638 8.63596 29.3332 16 29.3332Z" stroke="white" stroke-width="2"/>
<path d="M16 29.3332C23.364 29.3332 29.3333 23.3638 29.3333 15.9998C29.3333 8.63584 23.364 2.6665 16 2.6665C8.63596 2.6665 2.66663 8.63584 2.66663 15.9998C2.66663 23.3638 8.63596 29.3332 16 29.3332Z" fill="white" stroke="white" stroke-width="2" stroke-linejoin="round"/>
<path d="M22 18L16 12L10 18" stroke="black" stroke-width="2" stroke-linecap="round" stroke-linejoin="round"/>
</mask>
<g mask="url(#mask0_2668_4894)">
<path d="M0 0H32V32H0V0Z" fill="#030303"/>
<path d="M0 0H32V32H0V0Z" fill="url(#paint0_radial_2668_4894)"/>
<path d="M0 0H32V32H0V0Z" fill="url(#paint1_radial_2668_4894)"/>
<path d="M0 0H32V32H0V0Z" fill="url(#paint2_radial_2668_4894)" fill-opacity="0.2"/>
<path d="M0 0H32V32H0V0Z" fill="url(#paint3_radial_2668_4894)" fill-opacity="0.4"/>
</g>
<defs>
<radialGradient id="paint0_radial_2668_4894" cx="0" cy="0" r="1" gradientUnits="userSpaceOnUse" gradientTransform="translate(26.3636 17.75) rotate(-143.422) scale(14.2638 87.1716)">
<stop stop-color="#1F28D6"/>
<stop offset="1" stop-color="#2849EF"/>
</radialGradient>
<radialGradient id="paint1_radial_2668_4894" cx="0" cy="0" r="1" gradientUnits="userSpaceOnUse" gradientTransform="translate(10.7273 -5) rotate(77.7927) scale(40.4138 39.1968)">
<stop stop-color="#2575DE"/>
<stop offset="0.8515" stop-color="#221BE8"/>
</radialGradient>
<radialGradient id="paint2_radial_2668_4894" cx="0" cy="0" r="1" gradientUnits="userSpaceOnUse" gradientTransform="translate(7.27273 6.5) rotate(32.2894) scale(25.2716 34.4778)">
<stop offset="0.186254" stop-color="#3019B0"/>
<stop offset="1" stop-color="#095BB3"/>
</radialGradient>
<radialGradient id="paint3_radial_2668_4894" cx="0" cy="0" r="1" gradientUnits="userSpaceOnUse" gradientTransform="translate(17.7273 4.5) rotate(90) scale(27.5 14.6914)">
<stop stop-color="white"/>
<stop offset="1" stop-color="white" stop-opacity="0.08"/>
</radialGradient>
</defs>
</svg>
